<?xml version="1.0" encoding="utf-8"?>
<!-- Generator: Adobe Illustrator 24.0.0, SVG Export Plug-In . SVG Version: 6.00 Build 0)  -->
<svg version="1.1" xmlns="http://www.w3.org/2000/svg" xmlns:xlink="http://www.w3.org/1999/xlink" x="0px" y="0px"
	 viewBox="0 0 874.47 500" style="enable-background:new 0 0 874.47 500;" xml:space="preserve">
<style type="text/css">
	.st0{fill:#B3E4FB;}
	.st1{opacity:0.1;}
	.st2{fill:#82A09F;}
	.st3{fill:#AAC8C8;}
	.st4{fill:#FFFFFF;}
	.st5{fill:#F43B22;}
	.st6{fill:#C0DDDC;}
	.st7{fill:#FFB000;}
	.st8{fill:#2956C5;}
	.st9{fill:#0E4768;}
	.st10{fill:#2F343D;}
	.st11{fill:#B7BCC4;stroke:#022235;stroke-width:0.4121;stroke-linecap:round;stroke-linejoin:round;stroke-miterlimit:10;}
	.st12{opacity:0.5;fill:#B7BCC4;}
	.st13{fill:#E5AF9C;}
	.st14{opacity:0.3;fill:#E5AF9C;}
	.st15{fill:#07213D;}
	.st16{opacity:0.2;}
	.st17{fill:#884635;}
	.st18{fill:#FFD8CA;}
	.st19{fill:none;stroke:#022235;stroke-width:0.4919;stroke-miterlimit:10;}
	.st20{opacity:0.3;fill:#FFD3BF;}
	.st21{fill:none;stroke:#C12323;stroke-width:0.4919;stroke-miterlimit:10;}
	.st22{fill:#C4190C;}
	.st23{opacity:0.3;fill:#F39F52;}
	.st24{opacity:0.3;fill:#884635;}
	.st25{fill:#97CB2E;}
	.st26{fill:#B26B28;}
	.st27{fill:#81B31E;}
	.st28{fill:#C98031;}
	.st29{fill:#6F8C8A;}
	.st30{fill:#FFFBE5;}
	.st31{fill:#5EBFF4;}
	.st32{display:none;}
	.st33{display:inline;}
	.st34{fill:#F6F8F9;}
</style>
<g id="BACKGROUND">
	<rect y="0" class="st0" width="874.47" height="500"/>
</g>
<g id="OBJECTS">
	<g>
		<g>
			<rect x="329.99" y="113.08" class="st1" width="129.15" height="108.27"/>
			<rect x="333.27" y="110.1" class="st2" width="129.15" height="108.27"/>
			<rect x="337" y="113.23" class="st3" width="121.68" height="102.01"/>
			<rect x="347.35" y="125.71" class="st1" width="25.16" height="35.6"/>
			<rect x="349.44" y="123.97" class="st4" width="25.16" height="35.6"/>
			<path class="st5" d="M364.23,124.35c0,1.22-0.99,2.21-2.21,2.21c-1.22,0-2.21-0.99-2.21-2.21s0.99-2.21,2.21-2.21
				C363.24,122.15,364.23,123.13,364.23,124.35z"/>
			<rect x="352.72" y="132.38" class="st6" width="18.61" height="0.8"/>
			<rect x="352.72" y="134.95" class="st6" width="18.61" height="0.8"/>
			<rect x="352.72" y="137.52" class="st6" width="18.61" height="0.8"/>
			<rect x="352.72" y="140.08" class="st6" width="18.61" height="0.8"/>
			<rect x="352.72" y="142.65" class="st6" width="18.61" height="0.8"/>
			<rect x="352.72" y="145.22" class="st6" width="18.61" height="0.8"/>
			<rect x="352.72" y="147.78" class="st6" width="18.61" height="0.8"/>
			<rect x="352.72" y="150.35" class="st6" width="18.61" height="0.8"/>
			<g>
				<rect x="382.77" y="136.96" class="st1" width="25.16" height="35.6"/>
				<rect x="384.67" y="135.24" class="st4" width="25.16" height="35.6"/>
				<path class="st7" d="M399.46,135.63c0,1.22-0.99,2.21-2.21,2.21c-1.22,0-2.21-0.99-2.21-2.21c0-1.22,0.99-2.21,2.21-2.21
					C398.47,133.42,399.46,134.41,399.46,135.63z"/>
				<g>
					<rect x="387.95" y="143.66" class="st6" width="18.61" height="0.8"/>
					<rect x="387.95" y="146.22" class="st6" width="18.61" height="0.8"/>
					<rect x="387.95" y="148.79" class="st6" width="18.61" height="0.8"/>
					<rect x="387.95" y="151.36" class="st6" width="18.61" height="0.8"/>
					<rect x="387.95" y="153.92" class="st6" width="18.61" height="0.8"/>
					<rect x="387.95" y="156.49" class="st6" width="18.61" height="0.8"/>
					<rect x="387.95" y="159.06" class="st6" width="18.61" height="0.8"/>
					<rect x="387.95" y="161.62" class="st6" width="18.61" height="0.8"/>
				</g>
			</g>
			<g>
				<rect x="416.78" y="125.49" class="st1" width="25.16" height="35.6"/>
				<rect x="418.5" y="123.97" class="st4" width="25.16" height="35.6"/>
				<path class="st8" d="M433.28,124.35c0,1.22-0.99,2.21-2.21,2.21c-1.22,0-2.21-0.99-2.21-2.21s0.99-2.21,2.21-2.21
					C432.29,122.15,433.28,123.13,433.28,124.35z"/>
				<g>
					<rect x="421.77" y="132.38" class="st6" width="18.61" height="0.8"/>
					<rect x="421.77" y="134.95" class="st6" width="18.61" height="0.8"/>
					<rect x="421.77" y="137.52" class="st6" width="18.61" height="0.8"/>
					<rect x="421.77" y="140.08" class="st6" width="18.61" height="0.8"/>
					<rect x="421.77" y="142.65" class="st6" width="18.61" height="0.8"/>
					<rect x="421.77" y="145.22" class="st6" width="18.61" height="0.8"/>
					<rect x="421.77" y="147.78" class="st6" width="18.61" height="0.8"/>
					<rect x="421.77" y="150.35" class="st6" width="18.61" height="0.8"/>
				</g>
			</g>
			<rect x="347.02" y="179.03" class="st1" width="60.49" height="30.43"/>
			<rect x="348.93" y="176.93" class="st4" width="60.49" height="30.43"/>
			<circle class="st5" cx="377.51" cy="176.93" r="2.21"/>
			<g>
				<rect x="354.67" y="184.07" class="st6" width="49" height="0.8"/>
				<rect x="354.67" y="186.38" class="st6" width="49" height="0.8"/>
				<rect x="354.67" y="188.68" class="st6" width="49" height="0.8"/>
				<rect x="354.67" y="190.99" class="st6" width="49" height="0.8"/>
				<rect x="354.67" y="193.29" class="st6" width="49" height="0.8"/>
				<rect x="354.67" y="195.6" class="st6" width="49" height="0.8"/>
				<rect x="354.67" y="197.9" class="st6" width="49" height="0.8"/>
				<rect x="354.67" y="200.21" class="st6" width="49" height="0.8"/>
				<rect x="354.67" y="202.51" class="st6" width="49" height="0.8"/>
			</g>
		</g>
		<g>
			<g>
				<path class="st2" d="M323.4,86.76L323.4,86.76c-1.05,0-1.9-0.85-1.9-1.9v-3.32c0-1.05,0.85-1.9,1.9-1.9l0,0
					c1.05,0,1.9,0.85,1.9,1.9v3.32C325.3,85.91,324.45,86.76,323.4,86.76z"/>
				<path class="st2" d="M472.29,86.76L472.29,86.76c-1.05,0-1.9-0.85-1.9-1.9v-3.32c0-1.05,0.85-1.9,1.9-1.9l0,0
					c1.05,0,1.9,0.85,1.9,1.9v3.32C474.19,85.91,473.34,86.76,472.29,86.76z"/>
			</g>
			<rect x="323.08" y="82.29" class="st2" width="149.21" height="1.82"/>
			<g>
				<rect x="352.08" y="83.02" class="st2" width="1.32" height="27.38"/>
				<rect x="441.97" y="83.35" class="st2" width="1.32" height="27.38"/>
			</g>
		</g>
	</g>
	<g>
		<g>
			<circle class="st1" cx="86.44" cy="133.64" r="25.61"/>
			<circle class="st4" cx="89.32" cy="130.23" r="25.61"/>
			<g>
				<path class="st9" d="M93.39,102.91c-1.33-0.2-2.69-0.3-4.07-0.3c-15.23,0-27.62,12.39-27.62,27.61c0,8.44,3.81,16.01,9.8,21.07
					c4.81,4.09,11.04,6.55,17.82,6.55c15.22,0,27.61-12.39,27.61-27.62C116.93,116.38,106.69,104.88,93.39,102.91z M89.32,153.84
					c-4.57,0-8.84-1.31-12.46-3.58c-6.7-4.16-11.16-11.59-11.16-20.04c0-13.02,10.6-23.61,23.62-23.61c2.18,0,4.3,0.3,6.31,0.86
					c9.97,2.76,17.3,11.91,17.3,22.75C112.93,143.24,102.34,153.84,89.32,153.84z"/>
			</g>
			<g>
				<path class="st10" d="M89.32,112.01c0.23,3.04,0.32,6.07,0.42,9.11c0.06,3.04,0.1,6.07,0.07,9.11l0,0.25l-0.2,0.14
					c-1.9,1.36-3.82,2.7-5.77,4c-1.94,1.32-3.89,2.6-5.89,3.83c1.79-1.51,3.63-2.97,5.48-4.4c1.84-1.44,3.72-2.85,5.61-4.23
					l-0.2,0.4c-0.03-3.04,0.01-6.07,0.07-9.11C89,118.08,89.08,115.04,89.32,112.01z"/>
			</g>
		</g>
		<path class="st1" d="M116.93,130.22c0,15.23-12.39,27.62-27.61,27.62c-6.78,0-13.01-2.46-17.82-6.55c0.9-0.13,1.78-0.28,2.62-0.44
			c0.95-0.18,1.86-0.38,2.74-0.59c29.92-7.21,23.38-31.99,18.77-42.79c-0.38-0.87-0.74-1.65-1.06-2.32c-0.49-1-0.9-1.77-1.18-2.24
			C106.69,104.88,116.93,116.38,116.93,130.22z"/>
	</g>
	<g>
		<rect y="386.02" class="st11" width="874.47" height="113.98"/>
		<g>
			<ellipse class="st12" cx="255.45" cy="413.96" rx="231.55" ry="8.82"/>
			<g>
				<g>
					<g>
						<path class="st13" d="M222.46,212.92c-0.21,0.5-0.53,1.09-0.93,1.72c-1.92,3.01-5.85,6.97-10.87,6.97
							c-10.07,0-10.56-8.08-10.58-8.42l-0.03-0.2c3.37-1.72,3.99-4.8,4.01-6.77c0-1.08-0.17-1.83-0.17-1.83s3.57-0.05,6.99-0.19
							h0.06c1.72,0.07,3.46,0.12,4.78,0.15c1.32,0.03,2.21,0.04,2.21,0.04s-1.28,5.55,3.34,8.32L222.46,212.92z"/>
						<path class="st14" d="M222.46,212.92c-0.21,0.5-0.53,1.09-0.93,1.72c-5.68-5.28-13.94-7.62-17.47-8.42
							c0-1.08-0.17-1.83-0.17-1.83s3.57-0.05,6.99-0.19h0.06c1.72,0.07,3.46,0.12,4.78,0.15c1.32,0.03,2.21,0.04,2.21,0.04
							s-1.28,5.55,3.34,8.32L222.46,212.92z"/>
						<path class="st4" d="M201.12,216.67c0,0,5.11,4.99,18.49,0.34c-1.93,8.74-7.71,11.35-7.71,11.35l-9.87-7.26L201.12,216.67z"/>
						<path class="st15" d="M240.47,260.17l0.67,28.84l-56.88-0.53l2.69-26.04c0,0,2.46-9.21,1.98-12.28
							c-0.11-0.68-0.35-1.06-0.8-0.98c-2.48,0.41-10.48-2.44-12.13-3.68c1.03-1.86,3.1-15.71,6.61-24.39
							c3.51-8.67,11.57-7.23,11.57-7.23l18.19,15.71c0,0,12.94-15.01,15.08-15.3c15.49-2.07,21.08,33.89,21.08,33.89l-8.48,1.24
							L240.47,260.17z"/>
						<path class="st16" d="M248.24,241.72l-13.55,34.1c-0.47,1.18-1.76,1.81-2.98,1.47l-25.29-7.13c-1.42-0.4-2.18-1.95-1.62-3.31
							l0.92-2.26l12.79-31.42c0.46-1.14,1.68-1.76,2.87-1.47c4.49,1.09,11.21,2.89,16.93,4.44c3.31,0.9,6.28,1.72,8.29,2.28
							C248.02,238.82,248.78,240.35,248.24,241.72z"/>
						<path class="st8" d="M250.4,239.99l-13.55,34.1c-0.47,1.18-1.76,1.81-2.98,1.47l-25.29-7.13c-1.42-0.4-2.18-1.95-1.62-3.31
							l0.92-2.26l12.79-31.42c0.46-1.14,1.68-1.76,2.87-1.47c4.49,1.09,11.21,2.89,16.93,4.44c3.31,0.9,6.28,1.72,8.29,2.28
							C250.18,237.09,250.94,238.62,250.4,239.99z"/>
						<polygon class="st16" points="199.41,214.19 210.76,228.94 221.88,214.11 229.59,214.28 210.99,237.79 191.41,213.81 						
							"/>
						<polygon class="st9" points="199.41,212.24 210.76,226.99 221.88,212.16 229.59,214.28 210.99,235.84 191.6,213.86 						"/>
						<g>
							<path class="st13" d="M227.36,179.23c0.04-1.04,0.67-2.25,2.01-2.45c0.91-0.14,1.86,0.27,2.39,0.85
								c0.54,0.58,0.74,1.3,0.86,2c0.42,2.47-0.02,5-0.9,7.4c-0.34,0.92-0.78,1.88-1.74,2.5c-0.96,0.62-2.59,0.74-3.4,0.01
								L227.36,179.23z"/>
						</g>
						<g>
							<path class="st13" d="M189.42,179.23c-0.04-1.04-0.67-2.25-2.01-2.45c-0.91-0.14-1.86,0.27-2.39,0.85
								c-0.54,0.58-0.74,1.3-0.86,2c-0.42,2.47,0.02,5,0.9,7.4c0.34,0.92,0.78,1.88,1.74,2.5c0.96,0.62,2.59,0.74,3.4,0.01
								L189.42,179.23z"/>
						</g>
						<path class="st17" d="M230.48,176.86c-0.24,0.81-0.5,1.48-0.76,1.98c0,0,0,0,0,0.01c-0.4,0.79-0.78,1.14-1.06,0.91
							c-0.01-0.01-0.02-0.02-0.03-0.02c0-0.01-0.01-0.01-0.01-0.01c-0.33-0.25-0.77-0.25-1.29-0.09c-1.38,0.43-3.28,2.05-4.79,3.5
							c-1.39,1.35-2.45,2.56-2.45,2.56l-3.2-2.94l-4.78-4.4l-6.42-5.91l-4.21,0.98l-9.61,2.25c0,0,0.63,17.05-1.89,11.04
							c0-0.01-0.01-0.01-0.01-0.02c-0.29-0.7-0.62-1.7-1-3.07c-0.22-0.81-0.47-1.75-0.73-2.84c-0.28-1.17-0.58-2.5-0.9-4.02
							c-0.14-0.64-0.28-1.31-0.42-2.01c-4.25-20.79,10.67-26.45,16.51-27.68c-1.52-4.99,1.58-9.97,7.04-10.72
							c1.66-0.23,3.48,0.01,5.13,0.64c1.16,0.44,2.23,1.08,3.11,1.88c1.62,1.46,2.58,3.49,2.18,5.94c-0.15,0.88-0.4,2.25-1.26,3.37
							c0.3,0.1,0.59,0.2,0.87,0.31C233.55,153.5,232.55,170.05,230.48,176.86z"/>
						<path class="st16" d="M190.53,237.08l-1.02,12.1l-0.58,0.98c-0.11-0.68-0.35-1.06-0.8-0.98c-2.48,0.41-10.48-2.44-12.13-3.68
							C188.52,249.13,190.32,238.78,190.53,237.08z"/>
						<path class="st18" d="M228.65,188.77c0,1.67-0.16,3.18-0.45,4.55c-2.22,10.61-12.3,12.67-18.4,12.67
							c-2.72,0-5.08-0.26-7.14-0.72c-8.84-1.96-11.99-7.58-13.1-11.95c-0.5-1.98-0.59-3.7-0.59-4.71c0-3.77,0-11.81,0-11.81
							c-0.03-0.4-0.06-0.79-0.07-1.19c-0.01-0.3-0.02-0.59-0.02-0.89c0.48-3.11,2.86-12.5,14.4-14.85
							c-1.35,2.71-1.23,3.94,0.61,5.29c1.85,1.35,2.09,4.06,0.5,5.16c2.21-1.47,2.46-4.18,1.1-6.39c-1.35-2.21,0.25-3.57,1.11-4.06
							c0,3.08,2.7,6.77,12.67,9.59c0.82,0.22,2.24,0.81,3.74,1.6c2.49,1.31,5.18,3.19,5.58,4.94
							C228.63,178.63,228.65,182.67,228.65,188.77z"/>
						<path class="st18" d="M202.61,161.43c-10.72,2.51-13.15,11.24-13.69,14.48c-0.01-0.1-0.02-0.2-0.02-0.3
							c-0.01-0.3-0.02-0.59-0.02-0.89c0.48-3.11,2.86-12.5,14.4-14.85C202.99,160.45,202.77,160.97,202.61,161.43z"/>
						<path class="st18" d="M203.89,166.57c-1.27-0.93-1.72-1.81-1.43-3.16c0.19,0.64,0.66,1.19,1.43,1.75
							c1.25,0.91,1.77,2.45,1.47,3.69C205.19,168,204.69,167.16,203.89,166.57z"/>
						<path class="st18" d="M206.27,167.41c0.25,1.65-0.33,3.29-1.88,4.32c0.76-0.53,1.1-1.43,1.04-2.37
							C205.9,168.78,206.17,168.11,206.27,167.41z"/>
						<path class="st18" d="M188.97,178.21c-0.03-0.4-0.06-0.79-0.07-1.19c-0.01-0.3-0.02-0.59-0.02-0.89
							c0.01-0.07,0.02-0.14,0.04-0.22c0.01,0.3,0.03,0.59,0.05,0.89C188.97,176.8,188.97,177.34,188.97,178.21z"/>
						<path class="st18" d="M202.46,163.41c-0.16-0.56-0.1-1.19,0.15-1.98c0.22-0.05,0.44-0.1,0.67-0.15
							C202.86,162.12,202.58,162.81,202.46,163.41z"/>
						<path class="st18" d="M204.39,170.32c0.51-0.36,0.84-0.88,0.97-1.47c0.04,0.17,0.06,0.34,0.07,0.51
							C205.16,169.72,204.81,170.04,204.39,170.32z"/>
						<path class="st18" d="M205.49,165.34c-0.56-0.92-0.61-1.69-0.41-2.32c0.08,0.29,0.22,0.59,0.41,0.91
							c0.68,1.11,0.96,2.34,0.78,3.48C206.16,166.71,205.9,166,205.49,165.34z"/>
						<line class="st19" x1="207.09" y1="181.33" x2="211.4" y2="181.33"/>
						<circle class="st20" cx="220.83" cy="182.09" r="9.47"/>
						<circle class="st21" cx="220.83" cy="182.09" r="9.47"/>
						<circle class="st20" cx="197.62" cy="182.09" r="9.47"/>
						<circle class="st19" cx="197.62" cy="182.09" r="9.47"/>
						<circle class="st19" cx="220.83" cy="182.09" r="9.47"/>
						<path class="st17" d="M202.01,182.83c0,1.92-1.27,3.48-2.83,3.48c-1.56,0-2.83-1.56-2.83-3.48s1.27-3.48,2.83-3.48
							C200.74,179.35,202.01,180.9,202.01,182.83z"/>
						<path class="st4" d="M201.9,180.56c0,0.71-0.58,1.29-1.29,1.29s-1.29-0.58-1.29-1.29s0.58-1.29,1.29-1.29
							S201.9,179.85,201.9,180.56z"/>
						<ellipse class="st17" cx="219.72" cy="182.83" rx="2.83" ry="3.48"/>
						<path class="st22" d="M215.61,196.64c-0.02,0.6-0.1,1.26-0.34,1.91c-0.55,1.53-1.91,2.95-5.04,2.95
							c-3.09,0-5.24-0.49-6.34-2.43c-0.33-0.59-0.57-1.3-0.71-2.18c-0.17-1.1,0.67-2.09,1.78-2.09h8.84
							C214.82,194.8,215.65,195.63,215.61,196.64z"/>
						<path class="st4" d="M221.79,180.11c0,0.71-0.58,1.29-1.29,1.29c-0.71,0-1.29-0.58-1.29-1.29c0-0.71,0.58-1.29,1.29-1.29
							C221.22,178.82,221.79,179.39,221.79,180.11z"/>
						<path class="st23" d="M215.27,198.56c-0.55,1.53-1.91,2.95-5.04,2.95c-3.09,0-5.24-0.49-6.34-2.43
							C205.95,197.38,209.74,195.66,215.27,198.56z"/>
						<path class="st24" d="M220.89,144.82c-0.15,0.88-0.4,2.25-1.26,3.37c0.3,0.1-0.28-0.11,0,0c-3.02-1.56-8.51-2.1-14.62-1.33
							c13.59-1.7,13.76-6.86,13.7-7.98C220.33,140.34,221.29,142.37,220.89,144.82z"/>
						<path class="st18" d="M228.59,176c-0.05-0.2-0.13-0.4-0.23-0.61c-0.03-0.06-0.07-0.13-0.11-0.19
							c-0.08-0.14-0.17-0.28-0.28-0.42c-0.05-0.07-0.11-0.14-0.17-0.21c-0.12-0.14-0.24-0.28-0.38-0.42
							c-0.06-0.06-0.12-0.13-0.18-0.19c-0.2-0.19-0.41-0.39-0.64-0.58c-0.01-0.01-0.03-0.02-0.04-0.03
							c-0.23-0.19-0.47-0.37-0.72-0.55c-0.09-0.06-0.18-0.13-0.27-0.19c-0.18-0.12-0.36-0.25-0.54-0.37
							c-0.1-0.07-0.21-0.13-0.31-0.2c-0.19-0.12-0.38-0.23-0.57-0.34c-0.1-0.06-0.19-0.11-0.29-0.17c-0.28-0.16-0.55-0.31-0.83-0.46
							c-0.01,0-0.01-0.01-0.02-0.01v0c-1.5-0.79-2.92-1.37-3.74-1.6c-9.97-2.82-12.67-6.51-12.67-9.59
							c-0.74,0.42-2.01,1.47-1.52,3.15c0.27-0.88,1.02-1.46,1.52-1.74c0,3.08,2.7,6.77,12.67,9.59c0.71,0.2,6.09,3.02,7.37,3.66
							c0.23,10.42,4.21,36.05-23.98,30.74c2.06,0.46,4.42,0.72,7.14,0.72c6.1,0,16.18-2.06,18.4-12.67
							c0.29-1.37,0.45-2.88,0.45-4.55C228.65,182.67,228.63,178.63,228.59,176z"/>
						<path class="st18" d="M187.61,288.61c0,0-0.41-0.05-2.05-0.06c-1.1,0-2.75,0.01-5.2,0.06c-2.93-17.55-0.53-41.31-0.53-41.31
							s0.04,0.01,0.11,0.03c0.87,0.2,6.98,1.62,9.57,1.85C189.77,249.31,187.61,288.61,187.61,288.61z"/>
						<path class="st18" d="M187.61,288.61c0,0-0.41-0.05-2.05-0.06c2.6-37.02-4.64-40.87-5.62-41.22c0.87,0.2,6.98,1.62,9.57,1.85
							C189.77,249.31,187.61,288.61,187.61,288.61z"/>
						<path class="st16" d="M250.4,239.99l-13.55,34.1c-0.47,1.18-1.76,1.81-2.98,1.47l-25.29-7.13c-1.42-0.4-2.18-1.95-1.62-3.31
							l0.92-2.26c26.63,10.58,31.8-21.59,32.59-28.45c3.31,0.9,6.28,1.72,8.29,2.28C250.18,237.09,250.94,238.62,250.4,239.99z"/>
						<path class="st18" d="M248.59,263.86c-0.41,1.37-1.81,2.16-3.2,1.83c-5.36-1.28-13.4-5.32-17.95-10.27
							c-0.32-0.35-0.75-0.58-1.22-0.69c-4.14-0.89-6.81-3.81-6.15-8.35c0.16-1.1,0.54-2.18,1.28-3.01c2.39-2.67,5.94-0.79,8.07,1.1
							c0.13-3.01,2.46-4.38,3.69-1.5c0.72,1.67,0.97,3.62,1.06,4.96c0.06,0.94,0.71,1.74,1.62,1.98c2.27,0.58,6.42,1.86,9.01,3.87
							l2.4-5.34c0,0,0.81,1.63,1.44,4.16C249.38,255.52,249.86,259.64,248.59,263.86z"/>
						<path class="st18" d="M248.59,263.86c-0.41,1.37-1.81,2.16-3.2,1.83c-5.36-1.28-13.4-5.32-17.95-10.27
							c-0.32-0.35-0.75-0.58-1.22-0.69c-4.14-0.89-6.81-3.81-6.15-8.35c0.16-1.1,0.54-2.18,1.28-3.01c0,0-1.03,11.11,7.53,8.95
							c1.09,3.25,16.04,13.68,18.21,10.23c1.76-2.79,1.96-7.07,1.55-9.95C249.38,255.52,249.86,259.64,248.59,263.86z"/>
					</g>
					<rect x="191.49" y="240.29" class="st4" width="10.67" height="2.37"/>
				</g>
				<g>
					<path class="st25" d="M50.3,252.99c0,0-3.7-4.64-6.92-5.43c1.65,2.75,1.89,7.16,1.89,7.16l4.09,6.37
						C49.35,261.09,52.89,254.4,50.3,252.99z"/>
					<path class="st25" d="M51.35,253.06c0,0,0.63-9.13,4.25-11.96c0.16,3.78,2.52,11.96,2.52,11.96s-1.26,4.56-1.73,4.88
						c-0.47,0.31-3.78,0.94-3.78,0.94L51.35,253.06z"/>
					<path class="st25" d="M57.45,250.91c0,0,4.86-7.75,9.39-8.54c-1.64,3.4-3.42,11.73-3.42,11.73s-3.26,3.43-3.83,3.48
						c-0.56,0.05-3.77-0.95-3.77-0.95L57.45,250.91z"/>
					<path class="st26" d="M72.54,265.65v7.47c0,6.3-5.11,11.41-11.41,11.41h-7.61c-1.97,0-3.84-0.49-5.45-1.38
						c-3.55-1.94-5.96-5.7-5.96-10.03v-7.47H72.54z"/>
					<path class="st27" d="M45.68,262.09c0,0,0.84-8.6-9.02-12.69c5.66,0.63,11.96,1.68,14.48,12.48
						C45.99,263.13,45.68,262.09,45.68,262.09z"/>
					<path class="st27" d="M49.77,263.55c0,0,2.94-10.49-6.08-22.76c7.13,5.77,12.17,11.85,13.22,21.82
						C52.5,262.82,49.77,263.55,49.77,263.55z"/>
					<path class="st1" d="M72.54,265.94v7.18c0,6.3-5.11,11.41-11.41,11.41h-7.61c-1.97,0-3.84-0.49-5.45-1.38
						c13.31-1.52,11.24-16.11,11.24-16.11S64.3,266.33,72.54,265.94z"/>
					<path class="st27" d="M54.28,262.71c0,0,1.26-17.41,15.31-17.1c-4.51,1.68-9.55,8.18-8.6,17.83
						C59.95,265.44,54.28,262.71,54.28,262.71z"/>
					<path class="st27" d="M58.27,263.03c0,0,3.46-17.62,15.63-12.38c-3.25,0.52-9.86-0.31-9.97,13.53
						C59.21,262.3,58.27,263.03,58.27,263.03z"/>
					<path class="st28" d="M75.68,264.34c0,0.79-0.32,1.52-0.85,2.03c-0.52,0.53-1.25,0.85-2.03,0.85H40.39
						c-0.68,0-1.31-0.23-1.8-0.64c-0.67-0.52-1.09-1.33-1.09-2.24c0-0.79,0.32-1.52,0.85-2.03c0.52-0.53,1.25-0.85,2.03-0.85h32.41
						C74.39,261.45,75.68,262.75,75.68,264.34z"/>
					<path class="st1" d="M75.68,264.34c0,0.79-0.32,1.52-0.85,2.03c-0.52,0.53-1.25,0.85-2.03,0.85H40.39
						c-0.68,0-1.31-0.23-1.8-0.64c14.69-0.38,20.08-0.3,20.04-5.13h14.17C74.39,261.45,75.68,262.75,75.68,264.34z"/>
				</g>
				<g>
					<g>
						<path class="st29" d="M125.8,272.5c-0.05,2.64,0.65,5.64,2.87,8.69h-26.96c2.22-3.06,2.92-6.06,2.87-8.69
							c-0.06-5.04-2.87-8.73-2.87-8.73h26.96C128.67,263.76,125.86,267.45,125.8,272.5z"/>
						<path class="st3" d="M167.51,212.55v49.68c0,5.67-4.61,10.27-10.29,10.27H73.16c-4.59,0-8.47-3-9.8-7.14
							c-0.31-0.99-0.48-2.03-0.48-3.13v-49.68c0-5.67,4.6-10.27,10.29-10.27h84.06C162.89,202.28,167.51,206.88,167.51,212.55z"/>
						<g>
							<g>
								<path class="st9" d="M113.77,229.85c-0.17,0-0.31-0.14-0.31-0.31v-9.01c0-0.17,0.14-0.31,0.31-0.31s0.31,0.14,0.31,0.31
									v9.01C114.07,229.72,113.93,229.85,113.77,229.85z"/>
							</g>
							<g>
								<path class="st9" d="M108.35,233.65c-0.06,0-0.13-0.03-0.18-0.07l-5.27-5.27c-0.1-0.1-0.1-0.26,0-0.36
									c0.1-0.1,0.26-0.1,0.36,0l5.27,5.27c0.1,0.1,0.1,0.26,0,0.36C108.48,233.62,108.41,233.65,108.35,233.65z"/>
							</g>
							<g>
								<path class="st9" d="M103.08,249.75c-0.06,0-0.13-0.03-0.18-0.07c-0.1-0.1-0.1-0.26,0-0.36l5.27-5.27
									c0.1-0.1,0.26-0.1,0.36,0c0.1,0.1,0.1,0.26,0,0.36l-5.27,5.27C103.21,249.72,103.14,249.75,103.08,249.75z"/>
							</g>
							<g>
								<path class="st9" d="M113.77,257.38c-0.17,0-0.31-0.14-0.31-0.31v-9.01c0-0.17,0.14-0.31,0.31-0.31s0.31,0.14,0.31,0.31
									v9.01C114.07,257.25,113.93,257.38,113.77,257.38z"/>
							</g>
							<g>
								<path class="st9" d="M124.45,249.75c-0.06,0-0.13-0.03-0.18-0.07l-5.27-5.27c-0.1-0.1-0.1-0.26,0-0.36
									c0.1-0.1,0.26-0.1,0.36,0l5.27,5.27c0.1,0.1,0.1,0.26,0,0.36C124.58,249.72,124.52,249.75,124.45,249.75z"/>
							</g>
							<g>
								<path class="st9" d="M119.18,233.65c-0.06,0-0.13-0.03-0.18-0.07c-0.1-0.1-0.1-0.26,0-0.36l5.27-5.27
									c0.1-0.1,0.26-0.1,0.36,0c0.1,0.1,0.1,0.26,0,0.36l-5.27,5.27C119.31,233.62,119.25,233.65,119.18,233.65z"/>
							</g>
							<g>
								<path class="st9" d="M104.5,238.81H95.5c-0.17,0-0.31-0.14-0.31-0.31c0-0.17,0.14-0.31,0.31-0.31h9.01
									c0.17,0,0.31,0.14,0.31,0.31C104.81,238.67,104.67,238.81,104.5,238.81z"/>
							</g>
							<g>
								<path class="st9" d="M132.24,238.81h-9.01c-0.17,0-0.31-0.14-0.31-0.31c0-0.17,0.14-0.31,0.31-0.31h9.01
									c0.17,0,0.31,0.14,0.31,0.31C132.54,238.67,132.41,238.81,132.24,238.81z"/>
							</g>
						</g>
						<circle class="st30" cx="113.77" cy="238.5" r="7.73"/>
						<circle class="st9" cx="113.77" cy="238.5" r="5.19"/>
					</g>
					<path class="st1" d="M167.51,212.55v49.68c0,5.67-4.61,10.27-10.29,10.27H125.8c-0.05,2.64,0.65,5.64,2.87,8.69h-26.96
						c2.22-3.06,2.92-6.06,2.87-8.69H73.16c-4.59,0-8.47-3-9.8-7.14c23.65,0.38,39.53-4.46,50.11-11.68
						c0.21-0.14,0.41-0.27,0.6-0.42c2.82-1.99,5.27-4.14,7.36-6.43c0.12-0.12,0.23-0.25,0.33-0.37c2.22-2.44,4.03-5.02,5.54-7.65
						c0.12-0.21,0.23-0.41,0.35-0.62c7.68-13.96,6.5-29.38,5.5-35.92h24.07C162.89,202.28,167.51,206.88,167.51,212.55z"/>
				</g>
				<g>
					<polygon class="st4" points="286.79,289.36 286.17,295.37 282.23,333.38 276.98,384.17 274.06,412.33 43.95,412.33 
						41.03,384.16 39.76,371.9 35.78,333.38 31.84,295.37 31.22,289.36 					"/>
					<path class="st31" d="M284.94,340.85l-4.31,37.42c-0.31,2.73-1.74,4.93-3.65,5.9c-0.68,0.35-1.42,0.54-2.19,0.54H43.23
						c-0.77,0-1.52-0.19-2.2-0.55c-1.9-0.97-3.33-3.17-3.65-5.89l-0.76-6.59l-3.54-30.83c-0.35-3.08,0.8-5.95,2.7-7.47
						c0.9-0.73,1.98-1.16,3.14-1.16h240.17c1.16,0,2.24,0.42,3.14,1.16C284.14,334.9,285.29,337.77,284.94,340.85z"/>
					<path class="st9" d="M296.92,286.89v3.01c0,3.02-2.45,5.47-5.47,5.47H26.57c-3.02,0-5.47-2.45-5.47-5.47v-3.01
						c0-3.02,2.45-5.47,5.47-5.47h264.88C294.47,281.42,296.92,283.87,296.92,286.89z"/>
					<path class="st4" d="M178.17,349.59h-7.68c-1.3,0-2.35-1.05-2.35-2.36v-7.68c0-1.3-1.05-2.36-2.36-2.36h-13.55
						c-1.3,0-2.35,1.05-2.35,2.36v7.68c0,1.3-1.05,2.36-2.35,2.36h-7.68c-1.3,0-2.35,1.05-2.35,2.35v13.55
						c0,1.3,1.05,2.35,2.35,2.35h7.68c1.3,0,2.35,1.05,2.35,2.35v7.68c0,1.3,1.05,2.35,2.35,2.35h13.55c1.3,0,2.36-1.05,2.36-2.35
						v-7.68c0-1.3,1.05-2.35,2.35-2.35h7.68c1.3,0,2.35-1.05,2.35-2.35v-13.55C180.53,350.64,179.47,349.59,178.17,349.59z"/>
					<path class="st1" d="M296.92,286.89v3.01c0,3.02-2.45,5.47-5.47,5.47h-5.28l-3.94,38.01c1.91,1.52,3.06,4.39,2.71,7.47
						l-4.31,37.42c-0.31,2.73-1.74,4.93-3.65,5.9l-2.92,28.16H43.95l-2.92-28.17c-1.9-0.97-3.33-3.17-3.65-5.89l-0.76-6.59
						c1.05,0.08,2.1,0.15,3.14,0.22c83.44,5.48,118.05-16.09,131.6-39.68c7.53-13.08,8.56-26.79,7.85-36.85
						c-0.15-2.19-0.39-4.21-0.66-6.01c-0.56-3.69-1.26-6.47-1.67-7.94h114.57C294.47,281.42,296.92,283.87,296.92,286.89z"/>
				</g>
				<g>
					<g>
						<g>
							<rect x="325.53" y="337.13" class="st10" width="4.06" height="74.68"/>
							<rect x="316.78" y="351.67" class="st10" width="4.06" height="63.54"/>
							<rect x="379.48" y="351.67" class="st10" width="4.06" height="63.54"/>
							<rect x="370.5" y="337.13" class="st10" width="4.06" height="74.68"/>
							<path class="st9" d="M390.18,312.95v11.82c0,7.83-6.4,14.23-14.23,14.23h-51.8c-4.16,0-7.92-1.81-10.54-4.7
								c-2.29-2.51-3.69-5.87-3.69-9.54v-11.82c0-7.83,6.4-14.23,14.23-14.23h51.8C383.78,298.72,390.18,305.12,390.18,312.95z"/>
							<path class="st9" d="M389.55,358.68v1.57h-79.33v-1.57c0-0.57,0.06-1.13,0.18-1.67c0.77-3.68,4.03-6.44,7.95-6.44h63.08
								C385.91,350.57,389.55,354.19,389.55,358.68z"/>
						</g>
						<g>
							<rect x="412.2" y="337.13" class="st10" width="4.06" height="74.5"/>
							<rect x="403.45" y="351.67" class="st10" width="4.06" height="63.54"/>
							<rect x="466.15" y="351.67" class="st10" width="4.06" height="63.54"/>
							<rect x="457.17" y="337.13" class="st10" width="4.06" height="74.5"/>
							<path class="st9" d="M476.84,312.95v11.82c0,7.83-6.4,14.23-14.23,14.23h-51.79c-3.34,0-6.42-1.16-8.86-3.12
								c-3.26-2.61-5.37-6.63-5.37-11.11v-11.82c0-7.83,6.4-14.23,14.23-14.23h51.79C470.44,298.72,476.84,305.12,476.84,312.95z"/>
							<path class="st9" d="M476.22,358.68v1.57H396.9v-1.57c0-0.63,0.07-1.25,0.21-1.84c0.83-3.59,4.06-6.27,7.91-6.27h63.08
								C472.58,350.57,476.22,354.19,476.22,358.68z"/>
						</g>
					</g>
					<path class="st1" d="M390.18,312.95v11.82c0,7.83-6.4,14.23-14.23,14.23h-51.8c-4.16,0-7.92-1.81-10.54-4.7
						c49.31,0.52,46.53-30.4,45.71-35.59h16.64C383.78,298.72,390.18,305.12,390.18,312.95z"/>
					<path class="st1" d="M389.55,358.68v1.57h-79.33v-1.57c0-0.57,0.06-1.13,0.18-1.67c36.93-0.11,44.31-4.1,45.47-6.44h25.56
						C385.91,350.57,389.55,354.19,389.55,358.68z"/>
					<path class="st1" d="M476.84,312.95v11.82c0,7.83-6.4,14.23-14.23,14.23h-51.79c-3.34,0-6.42-1.16-8.86-3.12
						c42.07,0.28,39.97-30.4,38.99-37.17h21.66C470.44,298.72,476.84,305.12,476.84,312.95z"/>
					<path class="st1" d="M476.22,358.68v1.57H396.9v-1.57c0-0.63,0.07-1.25,0.21-1.84c26.78,1.92,36.73-2.95,40.36-6.27h30.63
						C472.58,350.57,476.22,354.19,476.22,358.68z"/>
				</g>
			</g>
		</g>
	</g>
</g>
<g id="Layer_4">
</g>
<g id="DESIGNED_BY_FREEPIK" class="st32">
	<g class="st33">
		<g id="XMLID_319_">
			<g id="XMLID_338_">
				<path id="XMLID_346_" class="st34" d="M260.1,469.07c-0.43,0.44-0.8,0.93-1.11,1.45l-0.47-0.24c-0.07-0.3-0.35-0.5-0.66-0.47
					c-0.33,0.04-0.57,0.34-0.53,0.67c0.04,0.33,0.34,0.57,0.67,0.53c0.07-0.01,0.13-0.03,0.18-0.05l0.45,0.23
					c-0.25,0.55-0.43,1.14-0.54,1.74l0.75,0.13c0.23-1.31,0.85-2.51,1.79-3.47L260.1,469.07z"/>
				<path id="XMLID_345_" class="st34" d="M265.59,466.77c-0.17,0-0.34,0.01-0.51,0.02l-0.07-0.63c0.19-0.15,0.3-0.39,0.27-0.64
					c-0.05-0.39-0.4-0.67-0.8-0.63c-0.39,0.05-0.67,0.4-0.63,0.8c0.03,0.25,0.19,0.46,0.4,0.56l0.07,0.62
					c-0.71,0.12-1.4,0.33-2.06,0.65l0.33,0.68c0.93-0.45,1.94-0.67,3-0.67c0.5,0,0.99,0.05,1.48,0.16l0.16-0.74
					C266.69,466.83,266.14,466.77,265.59,466.77z"/>
				<path id="XMLID_344_" class="st34" d="M272.19,469.31c0.33-0.04,0.57-0.34,0.53-0.67c-0.04-0.33-0.34-0.57-0.67-0.53
					c-0.31,0.04-0.54,0.3-0.53,0.61l-0.42,0.36c-0.42-0.43-0.89-0.81-1.41-1.14l-0.4,0.64c1.13,0.71,2.02,1.73,2.56,2.93l0.69-0.31
					c-0.25-0.55-0.57-1.07-0.94-1.54l0.4-0.35C272.06,469.32,272.13,469.32,272.19,469.31z"/>
				<path id="XMLID_343_" class="st34" d="M265.04,476.98c-0.39,0.02-0.77,0.03-1.16,0.03c-0.88,0-1.73-0.06-2.48-0.18
					c-0.39-0.06-0.85-0.15-1.27-0.29c1.05,1.86,3.07,3.12,5.39,3.12c2.86,0,5.26-1.92,5.95-4.5c-0.68,0.45-1.51,0.83-2.46,1.12
					C267.84,476.65,266.46,476.89,265.04,476.98z"/>
				<path id="XMLID_339_" class="st34" d="M265.59,468.28c-3.35,0-6.08,2.67-6.08,5.94c0,0.43,0.05,0.85,0.14,1.26
					c0.67,0.48,2.71,0.89,5.35,0.73c2.88-0.17,5.3-0.96,6.67-2.16c-0.01-0.2-0.02-0.39-0.05-0.58
					C271.24,470.52,268.65,468.28,265.59,468.28z M263.43,474.8c-1.02,0-1.85-0.83-1.85-1.85c0-1.02,0.83-1.85,1.85-1.85
					c1.02,0,1.85,0.83,1.85,1.85C265.28,473.97,264.45,474.8,263.43,474.8z M268.17,473.89c-0.75,0-1.36-0.61-1.36-1.36
					c0-0.75,0.61-1.36,1.36-1.36c0.75,0,1.36,0.61,1.36,1.36C269.53,473.28,268.92,473.89,268.17,473.89z"/>
			</g>
			<path id="XMLID_336_" class="st34" d="M281.6,470.15c-0.29-0.12-0.81-0.31-1.38-0.24c-0.55,0.07-0.84,0.34-0.84,1.01v0.87h2.23
				v1.72h-2.23v5.45h-1.93v-5.45h-1.34v-1.72h1.34v-0.89c0-1.68,0.9-2.78,2.57-2.78c0.64,0,1.16,0.12,1.59,0.31L281.6,470.15z"/>
			<path id="XMLID_334_" class="st34" d="M286.3,473.48c-0.18-0.03-0.36-0.05-0.53-0.05c-0.9,0-1.51,0.55-1.51,1.61v3.91h-1.93
				v-7.17h1.87v0.78c0.45-0.67,1.14-0.98,2.02-0.98c0.41,0,0.85,0.13,1.09,0.34L286.3,473.48z"/>
			<path id="XMLID_331_" class="st34" d="M293.97,475.36c0,0.22-0.01,0.49-0.04,0.65h-5.08c0.21,1.04,0.93,1.49,1.84,1.49
				c0.62,0,1.3-0.25,1.81-0.69l1.13,1.24c-0.81,0.75-1.85,1.09-3.06,1.09c-2.2,0-3.72-1.5-3.72-3.75c0-2.26,1.48-3.8,3.63-3.8
				C292.54,471.59,293.96,473.13,293.97,475.36z M288.85,474.69h3.18c-0.18-0.92-0.73-1.44-1.56-1.44
				C289.55,473.26,289.02,473.81,288.85,474.69z"/>
			<path id="XMLID_328_" class="st34" d="M301.62,475.36c0,0.22-0.01,0.49-0.04,0.65h-5.08c0.21,1.04,0.93,1.49,1.84,1.49
				c0.62,0,1.3-0.25,1.81-0.69l1.13,1.24c-0.81,0.75-1.85,1.09-3.06,1.09c-2.2,0-3.72-1.5-3.72-3.75c0-2.26,1.48-3.8,3.63-3.8
				C300.2,471.59,301.61,473.13,301.62,475.36z M296.5,474.69h3.18c-0.18-0.92-0.73-1.44-1.56-1.44
				C297.21,473.26,296.67,473.81,296.5,474.69z"/>
			<path id="XMLID_325_" class="st34" d="M309.96,475.37c0,2.15-1.49,3.77-3.47,3.77c-0.96,0-1.64-0.38-2.11-0.93v3.71h-1.92v-10.13
				h1.89v0.79c0.47-0.58,1.15-0.98,2.14-0.98C308.47,471.59,309.96,473.21,309.96,475.37z M304.29,475.37
				c0,1.13,0.75,1.98,1.84,1.98c1.14,0,1.85-0.88,1.85-1.98c0-1.1-0.71-1.98-1.85-1.98C305.03,473.39,304.29,474.24,304.29,475.37z"
				/>
			<path id="XMLID_322_" class="st34" d="M313.07,469.44c0,0.7-0.54,1.23-1.24,1.23c-0.7,0-1.23-0.53-1.23-1.23
				c0-0.7,0.53-1.24,1.23-1.24C312.53,468.2,313.07,468.74,313.07,469.44z M312.81,478.96h-1.93v-7.17h1.93V478.96z"/>
			<path id="XMLID_320_" class="st34" d="M316.03,474.34l2.7-2.55h2.37l-3.48,3.38l3.5,3.8h-2.38l-2.72-2.9v2.9h-1.93V468.3h1.93
				V474.34z"/>
		</g>
		<g>
			<path class="st34" d="M184.41,478.89v-1.05c-0.53,0.72-1.39,1.23-2.39,1.23c-1.85,0-3.15-1.41-3.15-3.71
				c0-2.26,1.29-3.72,3.15-3.72c0.95,0,1.82,0.47,2.39,1.25v-3.76h1.1v9.77H184.41z M184.41,476.97v-3.21
				c-0.4-0.62-1.24-1.14-2.12-1.14c-1.42,0-2.27,1.17-2.27,2.74c0,1.57,0.85,2.72,2.27,2.72
				C183.17,478.09,184.02,477.59,184.41,476.97z"/>
			<path class="st34" d="M186.93,475.35c0-2.05,1.46-3.71,3.49-3.71c2.14,0,3.4,1.67,3.4,3.79v0.28h-5.73
				c0.09,1.33,1.03,2.45,2.55,2.45c0.81,0,1.63-0.32,2.18-0.89l0.53,0.72c-0.7,0.7-1.65,1.08-2.81,1.08
				C188.44,479.07,186.93,477.56,186.93,475.35z M190.4,472.55c-1.51,0-2.26,1.27-2.31,2.36h4.64
				C192.72,473.85,192.01,472.55,190.4,472.55z"/>
			<path class="st34" d="M194.61,477.96l0.57-0.79c0.47,0.54,1.36,1.01,2.33,1.01c1.08,0,1.67-0.51,1.67-1.22
				c0-1.71-4.38-0.66-4.38-3.28c0-1.1,0.95-2.04,2.64-2.04c1.2,0,2.05,0.45,2.62,1.03l-0.51,0.76c-0.42-0.51-1.2-0.89-2.11-0.89
				c-0.97,0-1.57,0.48-1.57,1.11c0,1.55,4.38,0.53,4.38,3.28c0,1.19-0.95,2.14-2.78,2.14C196.31,479.07,195.32,478.72,194.61,477.96
				z"/>
			<path class="st34" d="M201.48,470.08c0-0.41,0.34-0.75,0.73-0.75c0.41,0,0.75,0.34,0.75,0.75c0,0.41-0.34,0.73-0.75,0.73
				C201.81,470.81,201.48,470.49,201.48,470.08z M201.67,478.89v-7.07h1.1v7.07H201.67z"/>
			<path class="st34" d="M204.58,480.71l0.56-0.82c0.59,0.7,1.29,0.97,2.3,0.97c1.17,0,2.27-0.57,2.27-2.12v-1.01
				c-0.51,0.72-1.38,1.26-2.37,1.26c-1.85,0-3.15-1.38-3.15-3.66c0-2.27,1.29-3.68,3.15-3.68c0.95,0,1.8,0.47,2.37,1.25v-1.07h1.1
				v6.87c0,2.34-1.64,3.08-3.37,3.08C206.24,481.76,205.42,481.53,204.58,480.71z M209.71,476.86v-3.09
				c-0.38-0.62-1.23-1.14-2.11-1.14c-1.42,0-2.27,1.13-2.27,2.7c0,1.55,0.85,2.7,2.27,2.7
				C208.48,478.01,209.33,477.47,209.71,476.86z"/>
			<path class="st34" d="M217.41,478.89v-4.63c0-1.24-0.63-1.64-1.58-1.64c-0.86,0-1.68,0.53-2.09,1.1v5.17h-1.1v-7.07h1.1v1.03
				c0.5-0.59,1.46-1.2,2.52-1.2c1.48,0,2.26,0.75,2.26,2.29v4.97H217.41z"/>
			<path class="st34" d="M219.93,475.35c0-2.05,1.46-3.71,3.49-3.71c2.14,0,3.4,1.67,3.4,3.79v0.28h-5.73
				c0.09,1.33,1.03,2.45,2.55,2.45c0.81,0,1.63-0.32,2.18-0.89l0.53,0.72c-0.7,0.7-1.66,1.08-2.81,1.08
				C221.44,479.07,219.93,477.56,219.93,475.35z M223.4,472.55c-1.51,0-2.26,1.27-2.31,2.36h4.64
				C225.72,473.85,225.02,472.55,223.4,472.55z"/>
			<path class="st34" d="M233.35,478.89v-1.05c-0.53,0.72-1.39,1.23-2.39,1.23c-1.85,0-3.15-1.41-3.15-3.71
				c0-2.26,1.29-3.72,3.15-3.72c0.95,0,1.82,0.47,2.39,1.25v-3.76h1.1v9.77H233.35z M233.35,476.97v-3.21
				c-0.4-0.62-1.25-1.14-2.12-1.14c-1.42,0-2.27,1.17-2.27,2.74c0,1.57,0.85,2.72,2.27,2.72
				C232.1,478.09,232.95,477.59,233.35,476.97z"/>
			<path class="st34" d="M239.69,478.89v-9.77h1.1v3.76c0.57-0.78,1.42-1.25,2.39-1.25c1.85,0,3.15,1.46,3.15,3.72
				c0,2.3-1.3,3.71-3.15,3.71c-1,0-1.86-0.51-2.39-1.23v1.05H239.69z M242.9,478.09c1.44,0,2.29-1.16,2.29-2.72
				c0-1.57-0.85-2.74-2.29-2.74c-0.86,0-1.73,0.53-2.11,1.14v3.21C241.17,477.59,242.04,478.09,242.9,478.09z"/>
			<path class="st34" d="M247.53,480.67c0.16,0.07,0.43,0.12,0.6,0.12c0.48,0,0.81-0.16,1.05-0.75l0.47-1.07l-2.96-7.15h1.19
				l2.36,5.8l2.34-5.8h1.2l-3.54,8.51c-0.42,1.03-1.14,1.42-2.08,1.44c-0.23,0-0.6-0.04-0.81-0.1L247.53,480.67z"/>
		</g>
	</g>
</g>
</svg>
